<svg width="1800" height="320" xmlns="http://www.w3.org/2000/svg" fill="none">

 <g>
  <title>Layer 1</title>
  <path id="svg_1" fill="white" d="m126.31695,119.06611l-26.31696,39.47286l26.31696,39.47385l274.55058,0l52.63392,-78.9467l10.03877,-15.0597l-10.03877,-15.05772l-52.63392,-78.94869l-256.13192,0l52.63392,78.94869l147.62271,0c8.48746,0 15.36631,6.78267 15.36631,15.15091c0,7.5591 -5.61508,13.82745 -12.9564,14.96651c-0.78521,0.12194 -1.59052,0.18538 -2.40991,0.18538c-0.81738,0 -1.62269,-0.06345 -2.40689,-0.18538l-216.2684,0z" clip-rule="evenodd" fill-rule="evenodd"/>
  <path id="svg_2" fill="white" d="m410.14329,229.99996l-120.1432,0l56.86775,75.82084l120.14212,0l-56.86666,-75.82084z" clip-rule="evenodd" fill-rule="evenodd"/>
  <path id="svg_3" fill="white" d="m675.93009,11.98793c6.48334,0 12.29254,1.14689 17.4266,3.44333c5.22008,2.33343 9.682,5.85056 13.37877,10.54629l0.07001,0.06861c3.49972,4.58229 6.12027,9.87135 7.85562,15.85628c1.69235,5.84527 2.54253,12.3049 2.54253,19.38143c0,5.98768 -0.4871,11.30834 -1.4503,15.95396c-1.02221,4.91194 -2.60454,9.07504 -4.73998,12.47882l0,0.02379c-1.4313,2.27011 -3.21366,4.31872 -5.34411,6.14584c1.57533,1.23919 2.98362,2.58125 4.22887,4.02648l0,0.00203c2.44351,2.82378 4.28089,5.983 5.50014,9.46242c1.20125,3.43367 1.80537,7.13976 1.80537,11.11928l0,39.36117l-31.51552,0l0,-39.36117c0,-1.20555 -0.27006,-2.2942 -0.80517,-3.26493c-0.62213,-1.12524 -1.62934,-2.20068 -3.01462,-3.22631l0.003,-0.0061c-1.57433,-1.03884 -3.31269,-1.82662 -5.20708,-2.3623c-2.02342,-0.57228 -4.28789,-0.85893 -6.79441,-0.85893l-88.16123,0l0,49.07974l-31.70856,0l0,-147.86974l125.93004,0zm-94.22148,68.35048l86.20483,0c3.25567,0 5.98324,-0.26896 8.17769,-0.80414c1.90939,-0.46931 3.42971,-1.1285 4.55794,-1.97746l0.04401,-0.02368c1.50231,-1.11528 2.67255,-2.85275 3.50572,-5.2178c0.99321,-2.81585 1.48931,-6.49389 1.48931,-11.03145c0,-4.49264 -0.51411,-8.16539 -1.53932,-11.02078c-0.87118,-2.42837 -2.11144,-4.25285 -3.71777,-5.47619l0,-0.00264c-1.02921,-0.74356 -2.47951,-1.33942 -4.3449,-1.77711c-2.20846,-0.51932 -4.93502,-0.78035 -8.17269,-0.78035l-86.20483,0l0,38.11161zm253.11534,81.50444c-13.90488,0 -25.87835,-0.47978 -35.91543,-1.4373c-10.21711,-0.9748 -18.27978,-2.45175 -24.188,-4.4288l0.008,-0.02135c-6.40032,-2.07464 -11.67741,-5.14441 -15.82327,-9.20931c-4.25988,-4.17672 -7.28151,-9.32011 -9.05887,-15.42916l0.002,0c-1.18525,-3.96326 -2.05442,-9.76634 -2.60654,-17.40723c-0.54011,-7.45893 -0.81017,-16.72364 -0.81017,-27.78925c0,-11.23709 0.25505,-20.59166 0.76016,-28.06634c0.51911,-7.64078 1.34128,-13.34893 2.46751,-17.12719l-0.008,-0.00264c1.78737,-6.14849 4.821,-11.34514 9.10088,-15.58478c4.19287,-4.15253 9.52397,-7.31378 15.99231,-9.47319c5.98524,-1.97746 14.07191,-3.45654 24.26202,-4.42941c10.03508,-0.95712 21.97654,-1.4369 35.81741,-1.4369c13.88287,0 25.84835,0.46402 35.89042,1.39207c10.1501,0.93862 18.19776,2.37551 24.13599,4.31079l0.04601,0.02104c6.34931,2.15148 11.6054,5.29424 15.76126,9.42318c4.25188,4.2185 7.31651,9.38354 9.1889,15.48455l0.024,0.0923c1.14924,3.93378 1.99941,9.75272 2.54753,17.45673c0.53211,7.49583 0.79917,16.81076 0.79917,27.93979c0,22.81968 -1.06122,37.827 -3.18666,45.01961l-0.01,-0.00305c-1.77737,6.1619 -4.79399,11.3429 -9.04087,15.53182c-4.20887,4.15029 -9.53197,7.26377 -15.9583,9.33129l0,-0.00305c-5.89922,1.96689 -13.95489,3.43875 -24.159,4.40848c-10.06608,0.95752 -22.08057,1.4373 -36.03845,1.4373zm0,-30.23927c15.12513,0 27.0956,-0.56415 35.90342,-1.68736c7.92364,-1.00733 12.81665,-2.29623 14.67403,-3.85653l0,0.00203c1.67035,-1.43934 3.05663,-5.15152 4.16386,-11.13148c1.29427,-7.00762 1.9404,-16.61041 1.9404,-28.8098c0,-12.30754 -0.63013,-21.96797 -1.88839,-28.98646c-1.07122,-5.96928 -2.4075,-9.67364 -4.00783,-11.11318l-0.003,0.00264c-1.87039,-1.59516 -6.7684,-2.90022 -14.68704,-3.91274c-8.7268,-1.11518 -20.75929,-1.6715 -36.09546,-1.6715c-15.31617,0 -27.32365,0.55632 -36.01945,1.6715c-7.88463,1.01252 -12.72563,2.30182 -14.518,3.86791l-0.07001,0.04483c-1.64234,1.39471 -3.02263,5.11229 -4.13285,11.1579c-1.29227,7.02652 -1.9384,16.67109 -1.9384,28.93909c0,12.13088 0.64613,21.68529 1.9384,28.66241c1.10523,5.98199 2.49252,9.68401 4.15886,11.102l0.02,0.04473c1.85238,1.60299 6.73839,2.92441 14.65903,3.96021c8.6988,1.14151 20.66927,1.71379 35.90242,1.71379zm110.19379,-119.816l37.52476,0l1.73036,1.79815l104.64764,108.73433l0,-110.53248l31.70656,0l0,148.07008l-38.46796,0l-1.73036,-1.8012l-103.70045,-107.74072l0,109.54192l-31.71056,0l0,-148.07008zm295.58413,150.05527c-13.91288,0 -25.88535,-0.47978 -35.91743,-1.4373c-10.22211,-0.9748 -18.28378,-2.45175 -24.185,-4.4288l0,-0.02135c-6.40132,-2.07464 -11.67241,-5.14441 -15.82327,-9.20931c-4.26088,-4.17672 -7.28151,-9.32011 -9.05187,-15.42916l0,0c-1.19025,-3.96326 -2.06043,-9.76634 -2.61054,-17.40723c-0.54011,-7.45893 -0.81017,-16.72364 -0.81017,-27.78925c0,-11.23709 0.26005,-20.59166 0.76016,-28.06634c0.52011,-7.64078 1.34028,-13.34893 2.47051,-17.12719l-0.01,-0.00264c1.79037,-6.14849 4.821,-11.34514 9.10188,-15.58478c4.19087,-4.15253 9.52197,-7.31378 15.99331,-9.47319c5.98124,-1.97746 14.07291,-3.45654 24.26502,-4.42941c10.03207,-0.95712 21.97454,-1.4369 35.81741,-1.4369c13.87287,0 25.84534,0.46402 35.88742,1.39207c10.1521,0.93862 18.19376,2.37551 24.13499,4.31079l0.05001,0.02104c6.34131,2.15148 11.6024,5.29424 15.76326,9.42318c4.25088,4.2185 7.31151,9.38354 9.1819,15.48455l0.02,0.0923c1.15024,3.93378 2.00041,9.75272 2.55053,17.45673c0.53011,7.49583 0.80017,16.81076 0.80017,27.93979c0,22.81968 -1.06022,37.827 -3.18066,45.01961l-0.02,-0.00305c-1.77037,6.1619 -4.79099,11.3429 -9.03187,15.53182c-4.21087,4.15029 -9.53197,7.26377 -15.9633,9.33129l0,-0.00305c-5.90122,1.96689 -13.95289,3.43875 -24.155,4.40848c-10.07208,0.95752 -22.08457,1.4373 -36.03745,1.4373zm0,-30.23927c15.12313,0 27.0956,-0.56415 35.89742,-1.68736c7.92164,-1.00733 12.82265,-2.29623 14.67303,-3.85653l0,0.00203c1.67035,-1.43934 3.06063,-5.15152 4.17086,-11.13148c1.29027,-7.00762 1.9404,-16.61041 1.9404,-28.8098c0,-12.30754 -0.63013,-21.96797 -1.89039,-28.98646c-1.07022,-5.96928 -2.4105,-9.67364 -4.01083,-11.11318l0,0.00264c-1.88039,-1.59516 -6.7714,-2.90022 -14.69304,-3.91274c-8.7218,-1.11518 -20.75429,-1.6715 -36.08746,-1.6715c-15.32317,0 -27.32565,0.55632 -36.02745,1.6715c-7.88163,1.01252 -12.72263,2.30182 -14.513,3.86791l-0.07001,0.04483c-1.64034,1.39471 -3.02062,5.11229 -4.13085,11.1579c-1.30027,7.02652 -1.9404,16.67109 -1.9404,28.93909c0,12.13088 0.64013,21.68529 1.9404,28.66241c1.10023,5.98199 2.49052,9.68401 4.15086,11.102l0.03001,0.04473c1.85038,1.60299 6.73139,2.92441 14.65303,3.96021c8.7018,1.14151 20.67428,1.71379 35.90743,1.71379zm192.59983,-5.79191l58.68214,-110.67042l1.67035,-3.15333l34.10705,0l-4.73098,8.82722l-72.73504,135.91278l-1.67035,3.12974l-30.63634,0l-1.68035,-3.12974l-72.89507,-135.91278l-4.73098,-8.82722l34.30709,0l1.67035,3.15333l58.64213,110.67042zm184.46815,36.03118c-13.91288,0 -25.88535,-0.47978 -35.92743,-1.4373c-10.21211,-0.9748 -18.27378,-2.45175 -24.185,-4.4288l0.01,-0.02135c-6.40132,-2.07464 -11.68242,-5.14441 -15.82327,-9.20931c-4.26088,-4.17672 -7.28151,-9.32011 -9.06187,-15.42916l0,0c-1.18024,-3.96326 -2.05042,-9.76634 -2.60054,-17.40723c-0.54011,-7.45893 -0.81017,-16.72364 -0.81017,-27.78925c0,-11.23709 0.25005,-20.59166 0.76016,-28.06634c0.52011,-7.64078 1.34028,-13.34893 2.47051,-17.12719l-0.01,-0.00264c1.79037,-6.14849 4.821,-11.34514 9.10188,-15.58478c4.19087,-4.15253 9.52197,-7.31378 15.99331,-9.47319c5.98124,-1.97746 14.07291,-3.45654 24.25502,-4.42941c10.04208,-0.95712 21.98455,-1.4369 35.82741,-1.4369c13.87287,0 25.83534,0.46402 35.88742,1.39207c10.1421,0.93862 18.19376,2.37551 24.13499,4.31079l0.04001,0.02104c6.35131,2.15148 11.6024,5.29424 15.76326,9.42318c4.25088,4.2185 7.32151,9.38354 9.1919,15.48455l0.02,0.0923c1.15024,3.93378 2.00041,9.75272 2.55053,17.45673c0.53011,7.49583 0.80017,16.81076 0.80017,27.93979c0,22.81968 -1.06022,37.827 -3.19066,45.01961l-0.01,-0.00305c-1.78037,6.1619 -4.79099,11.3429 -9.04187,15.53182c-4.20087,4.15029 -9.53197,7.26377 -15.9533,9.33129l0,-0.00305c-5.90122,1.96689 -13.96289,3.43875 -24.165,4.40848c-10.06208,0.95752 -22.07457,1.4373 -36.02745,1.4373zm0,-30.23927c15.11313,0 27.0856,-0.56415 35.89742,-1.68736c7.92164,-1.00733 12.81265,-2.29623 14.67303,-3.85653l0,0.00203c1.67035,-1.43934 3.06063,-5.15152 4.16086,-11.13148c1.30027,-7.00762 1.9504,-16.61041 1.9504,-28.8098c0,-12.30754 -0.64013,-21.96797 -1.90039,-28.98646c-1.06022,-5.96928 -2.4005,-9.67364 -4.00083,-11.11318l-0.01,0.00264c-1.87039,-1.59516 -6.7614,-2.90022 -14.68304,-3.91274c-8.73181,-1.11518 -20.76429,-1.6715 -36.08746,-1.6715c-15.32317,0 -27.33565,0.55632 -36.02745,1.6715c-7.88163,1.01252 -12.72263,2.30182 -14.513,3.86791l-0.07001,0.04483c-1.65034,1.39471 -3.03063,5.11229 -4.14086,11.1579c-1.29027,7.02652 -1.9304,16.67109 -1.9304,28.93909c0,12.13088 0.64013,21.68529 1.9304,28.66241c1.11023,5.98199 2.50052,9.68401 4.16086,11.102l0.02,0.04473c1.85038,1.60299 6.74139,2.92441 14.66303,3.96021c8.7018,1.14151 20.66427,1.71379 35.90743,1.71379z"/>
  <path id="svg_4" fill="white" d="m607.17684,252.21215c11.00359,0 20.01773,0.32091 27.04741,0.96274c7.14182,0.64869 12.23011,1.6497 15.25985,2.99125c3.97091,1.76354 6.94258,4.74694 8.908,8.94725c1.89134,4.03446 2.8335,9.17886 2.8335,15.4283c0,5.99526 -1.14742,10.99442 -3.44626,14.9906c-2.3479,4.08058 -5.85623,7.08165 -10.526,9.00319l0.003,0c-7.24795,2.98144 -21.65675,4.47314 -43.2304,4.47314c-11.63437,0 -21.22822,-0.62907 -28.77254,-1.88916c-7.73355,-1.29052 -13.37752,-3.268 -16.93292,-5.92852c-2.84852,-2.13058 -4.96213,-5.44961 -6.34384,-9.95023c-1.31663,-4.29649 -1.97644,-9.71371 -1.97644,-16.24579l0,-1.80967l17.77396,0l0,1.80967c0,4.1748 0.45957,7.52719 1.3767,10.0572c0.83603,2.30919 2.04052,3.90001 3.61246,4.76853l0.01502,0.00687c1.75116,0.98825 5.19742,1.74882 10.33376,2.28367c5.28253,0.54957 12.29719,0.8273 21.02797,0.8273c8.59161,0 15.65534,-0.20118 21.18217,-0.60061c5.44272,-0.39452 9.38559,-0.97549 11.8156,-1.73901l-0.002,-0.00196c2.1086,-0.67715 3.67955,-1.81261 4.70581,-3.40343c1.07232,-1.6654 1.60999,-3.88234 1.60999,-6.6518c0,-2.89213 -0.41251,-5.19838 -1.23653,-6.90598c-0.73991,-1.53782 -1.83026,-2.59674 -3.26904,-3.17182l-0.00501,0c-1.74516,-0.70267 -5.22545,-1.23654 -10.4429,-1.61143c-5.33659,-0.37881 -12.44237,-0.57018 -21.32134,-0.57018c-10.92349,0 -20.10183,-0.6536 -27.524,-1.95687c-7.55934,-1.32879 -13.31445,-3.35338 -17.26533,-6.06396c-3.15189,-2.15609 -5.51281,-5.15225 -7.07374,-8.97571c-1.51988,-3.71845 -2.27781,-8.21416 -2.27781,-13.47535c0,-11.69708 3.8047,-19.3234 11.40909,-22.87698c3.58643,-1.67227 8.97509,-2.91765 16.16897,-3.73219c7.07374,-0.80179 15.92767,-1.20121 26.56281,-1.20121c10.62412,0 19.46705,0.63397 26.52577,1.89897c7.21691,1.29346 12.60056,3.27389 16.14294,5.93834l0.00801,0.00785c2.92662,2.20418 5.10831,5.42213 6.54208,9.64796c1.38171,4.06979 2.06956,9.08268 2.06956,15.03084l0,1.81065l-17.49861,0l0,-1.81065c0,-3.7263 -0.47258,-6.73031 -1.41775,-9.01104c-0.86807,-2.09231 -2.13564,-3.56143 -3.8047,-4.4015c-1.8623,-0.93428 -5.13735,-1.64872 -9.81412,-2.14334c-4.80994,-0.50836 -11.06166,-0.76351 -18.75316,-0.76351c-6.81542,0 -12.14901,0.04318 -15.99275,0.13052c-3.99994,0.09127 -6.73932,0.22866 -8.20714,0.41218l-0.01502,0.00785c-4.18417,0.49069 -7.27999,1.67227 -9.27946,3.53494c-1.91136,1.78513 -2.86954,4.29256 -2.86954,7.52033c0,2.83521 0.53967,5.18267 1.61499,7.04043c1.0493,1.8077 2.63626,3.19734 4.75487,4.1748c2.30385,1.03045 5.92732,1.82243 10.86943,2.36218c5.03222,0.54761 11.40609,0.82436 19.12462,0.82436zm-29.99405,-3.18949l0,0.00294l0,-0.00294zm152.3602,29.89778c0,3.36516 0.46257,6.02764 1.3797,7.9855c0.82802,1.76649 2.05354,2.96475 3.66953,3.59676l0.04405,0.01472c1.84127,0.77627 5.37264,1.37492 10.59809,1.7871c5.36262,0.42298 12.44738,0.63397 21.25125,0.63397c8.89799,0 16.06084,-0.211 21.47252,-0.63397c5.28253,-0.41512 8.83792,-1.00788 10.65316,-1.77924l0.03404,-0.0157c1.56593,-0.62612 2.7554,-1.82439 3.56841,-3.59676l0.002,0c0.89611,-1.96178 1.34867,-4.62525 1.34867,-7.99237l0,-67.43366l17.77596,0l0,67.43366c0,6.53207 -0.67483,11.84429 -2.0225,15.93763c-1.43177,4.35046 -3.63649,7.36919 -6.61017,9.05422l-0.00501,0c-3.08281,1.74097 -8.53354,3.03443 -16.34519,3.86959c-7.63844,0.81651 -17.60074,1.22673 -29.8719,1.22673c-12.21108,0 -22.09529,-0.38666 -29.64161,-1.16392c-7.71853,-0.79394 -13.05312,-2.02066 -15.99776,-3.67822l0,-0.00687c-3.12186,-1.76158 -5.43371,-4.83232 -6.93957,-9.20732c-1.42376,-4.14143 -2.13764,-9.48701 -2.13764,-16.03185l0,-67.43366l17.77396,0l0,67.43366zm230.46067,-67.43366c4.25926,0 8.05094,0.71739 11.37505,2.15315c3.35815,1.44557 6.21768,3.61737 8.5806,6.5095l0.02403,0.02748c2.29283,2.899 4.01496,6.25238 5.15737,10.0572c1.1294,3.75967 1.6961,7.94723 1.6961,12.55972c0,3.94613 -0.3274,7.41826 -0.9742,10.41638c-0.66182,3.07565 -1.67507,5.65668 -3.02574,7.73623l0,0.00785c-0.99923,1.52409 -2.28282,2.89115 -3.84875,4.09825c-0.62878,0.48284 -1.30361,0.94114 -2.02851,1.37393c0.51764,0.28754 1.01025,0.58785 1.48083,0.89895l0.00801,0c1.4588,0.96175 2.72937,2.04912 3.8067,3.25819c1.52689,1.70073 2.67731,3.60658 3.44125,5.71262c0.75794,2.08936 1.14041,4.36518 1.14041,6.81667l0,24.54337l-17.63679,0l0,-24.54337c0,-2.43088 -1.22051,-4.51337 -3.65351,-6.24649l0.002,0c-1.33765,-0.86852 -2.80947,-1.51722 -4.41245,-1.95786c-1.64403,-0.44849 -3.44826,-0.67225 -5.41168,-0.67225l-64.54973,0l0,33.41996l-17.77396,0l0,-96.16948l86.60298,0zm-68.82902,46.54495l63.16803,0c2.45403,0 4.55763,-0.20609 6.30579,-0.62121c1.65905,-0.38961 3.01172,-0.96764 4.05601,-1.72331l0.01602,-0.00785c1.44078,-1.03045 2.53713,-2.57122 3.28205,-4.61446c0.79799,-2.1767 1.19748,-4.93635 1.19748,-8.27108c0,-6.4251 -1.54291,-10.74416 -4.62571,-13.02293l0,0.00294c-0.99122,-0.71052 -2.30785,-1.25224 -3.94688,-1.62419c-1.74015,-0.39452 -3.83574,-0.59275 -6.28476,-0.59275l-63.16803,0l0,30.47483zm167.29265,1.67522c0,8.44282 0.46057,15.13781 1.38171,20.08103c0.86106,4.65567 2.08257,7.66459 3.6445,9.02675c1.60198,1.37492 5.23647,2.44364 10.88344,3.20225c5.89728,0.79394 13.86713,1.19434 23.92956,1.19434c9.87219,0 17.74192,-0.27773 23.61918,-0.8273c5.70705,-0.53485 9.50174,-1.30131 11.37405,-2.28858l0,-0.00589c1.58195,-0.88521 2.81348,-2.80675 3.68455,-5.76758l0,0c0.85105,-2.88919 1.33164,-6.70283 1.42176,-11.43996l-45.53625,0l0,-16.06718l63.34825,0l0,14.25751c0,8.15822 -0.86106,14.85026 -2.58319,20.07121c-1.79221,5.44569 -4.5356,9.32705 -8.23017,11.64311l0,-0.00196c-3.54438,2.25521 -9.30149,3.93043 -17.25131,5.02271c-7.77961,1.07167 -17.7319,1.60848 -29.84687,1.60848c-12.32522,0 -22.40768,-0.70267 -30.24736,-2.10016c-8.04994,-1.43871 -13.79704,-3.64289 -17.2413,-6.60862l0,-0.00491c-3.45427,-2.99812 -6.02745,-7.99826 -7.69951,-14.99551c-1.61199,-6.76859 -2.42299,-15.48227 -2.42299,-26.13517c0,-10.62443 0.811,-19.3126 2.42299,-26.05862c1.67207,-6.98449 4.24524,-11.96598 7.70952,-14.94251l0.01001,-0.00687c3.39419,-2.88232 9.12127,-5.0178 17.1612,-6.40253c7.81966,-1.35136 17.92214,-2.02655 30.30744,-2.02655c24.51028,0 40.21968,1.83322 47.1182,5.49672l0.03004,0.02257c3.66453,2.03342 6.3979,5.44961 8.19012,10.24562c1.71211,4.58207 2.57318,10.4468 2.57318,17.59519l0,1.80967l-17.79198,0l0,-1.80967c0,-4.25429 -0.51063,-7.62435 -1.52188,-10.10627l0,-0.00785c-0.91113,-2.23264 -2.23276,-3.72336 -3.9649,-4.47706c-2.0225,-0.8273 -5.88727,-1.45931 -11.5743,-1.89407c-5.8272,-0.44555 -13.5167,-0.6693 -23.05848,-0.6693c-10.17257,0 -18.22251,0.38666 -24.13982,1.16588c-5.65699,0.74291 -9.27145,1.78906 -10.83338,3.13846c-1.50186,1.30033 -2.68331,4.27882 -3.52435,8.9345c-0.8911,4.95401 -1.34166,11.66372 -1.34166,20.12813zm175.01619,47.94931l-17.77195,0l0,-96.16948l17.77195,0l0,96.16948zm72.6197,-47.94931c0,8.3545 0.45056,14.9798 1.35167,19.87788c0.84104,4.62525 2.03251,7.61846 3.55439,8.97768c1.57194,1.36412 4.98616,2.42892 10.26268,3.18458c5.52683,0.79197 12.96602,1.1914 22.30756,1.1914c17.30137,0 27.75428,-0.8803 31.34872,-2.63992c1.81224,-0.90876 3.19395,-2.66739 4.15513,-5.26609c1.0513,-2.83325 1.57194,-6.63119 1.57194,-11.38893l0,-1.81261l17.78196,0l0,1.81261c0,7.53505 -0.80099,13.70793 -2.40297,18.52063c-1.66205,5.02762 -4.23523,8.61162 -7.69951,10.74024l0.01001,0.00196c-3.35414,2.08053 -8.8209,3.62228 -16.38023,4.62525c-7.40915,0.98531 -16.87084,1.47698 -28.38506,1.47698c-11.72448,0 -21.33636,-0.68795 -28.82561,-2.06483c-7.69951,-1.41515 -13.22634,-3.58891 -16.57047,-6.51343l-0.01001,-0.00785c-3.36416,-2.95788 -5.85724,-7.9119 -7.47924,-14.85124c-1.57194,-6.70185 -2.36292,-15.32623 -2.36292,-25.86431c0,-10.57733 0.79098,-19.24194 2.36292,-25.99287c1.622,-6.97762 4.11508,-11.97187 7.46923,-14.98079l0.01001,-0.00687c3.30408,-2.93531 8.81088,-5.11202 16.51039,-6.52717c7.48925,-1.37492 17.12115,-2.06483 28.89569,-2.06483c23.34884,0 38.25726,1.98828 44.72525,5.9668c3.47429,2.12862 6.04747,5.72243 7.71954,10.77851c1.60198,4.8333 2.41298,11.0425 2.41298,18.61975l0,1.81261l-17.78196,0l0,-1.81261c0,-4.7597 -0.48059,-8.54194 -1.44178,-11.34281c-0.87108,-2.53785 -2.12262,-4.21994 -3.74463,-5.04528l0,-0.00491c-1.88233,-0.88521 -5.41669,-1.5653 -10.6031,-2.03637c-5.35662,-0.48578 -12.44537,-0.73015 -21.28629,-0.73015c-9.41163,0 -16.88085,0.38666 -22.40768,1.16588c-5.26651,0.738 -8.65069,1.77924 -10.15254,3.11785l-0.01001,0.00785c-1.52188,1.32879 -2.70334,4.3328 -3.55439,8.99043c-0.90111,4.96186 -1.35167,11.66175 -1.35167,20.08495zm216.49743,-47.25057l49.85158,92.54524l1.43177,2.65464l-20.03475,0l-0.52064,-0.9647l-10.66317,-19.60015l-65.1705,0l-10.50297,19.59524l-0.52064,0.9696l-20.03475,0l1.42176,-2.65464l49.67136,-92.54524l0.52064,-0.9696l24.01967,0l0.53066,0.9696zm12.0649,58.70034l-23.75935,-44.95217l-1.36168,0l-23.75935,44.95217l48.88038,0zm82.47187,-59.66995l17.64179,0l0,80.10035l72.46952,0l0,16.06914l-90.11131,0l0,-96.16948z"/>
 </g>
</svg>